<svg width="120" height="166" viewBox="0 0 120 166" fill="none" xmlns="http://www.w3.org/2000/svg">
<g id="Card Variant">
<g id="Card Back" filter="url(#filter0_d_2339_991)">
<path d="M5.67017 8.81939C5.67017 5.85572 8.0727 3.45319 11.0364 3.45319H109.238C112.202 3.45319 114.604 5.85572 114.604 8.81939V152.634C114.604 155.597 112.202 158 109.238 158H11.0364C8.0727 158 5.67017 155.597 5.67017 152.634V8.81939Z" fill="white"/>
</g>
<g id="Vector">
<path d="M11.1681 17.8706V17.3335C11.1681 12.8859 13.0696 9.94238 16.3891 9.94238C19.7087 9.94238 21.5994 12.8859 21.5994 17.3335V17.8706C21.5994 22.3075 19.6979 25.2295 16.3784 25.2295C13.0696 25.2295 11.1681 22.3182 11.1681 17.8706ZM13.0481 17.3442V17.8492C13.0481 21.4265 14.3265 23.6073 16.3891 23.6073C18.4518 23.6073 19.7302 21.4265 19.7302 17.8492V17.3442C19.7302 13.7669 18.441 11.5753 16.3784 11.5753C14.3265 11.5753 13.0481 13.7669 13.0481 17.3442Z" fill="#211C1D"/>
<path d="M9.68341 25.0254C9.10329 25.0254 8.74878 24.6279 8.74878 23.9941V11.1778C8.74878 10.544 9.10329 10.1465 9.68341 10.1465C10.2635 10.1465 10.6288 10.544 10.6288 11.1778V23.9941C10.6288 24.6279 10.2635 25.0254 9.68341 25.0254Z" fill="#211C1D"/>
<path d="M14.3836 39.9434C14.2709 39.9434 14.1795 39.8556 14.1795 39.7474C14.1795 39.5169 14.7574 38.0021 14.897 36.9829C14.9138 36.8604 14.7582 36.8115 14.6879 36.9112C14.3511 37.389 14.0115 37.9 13.0876 37.9122C11.3664 37.9349 10.3748 36.2997 10.9163 34.8118C11.1817 34.0823 14.8332 29.211 15.3294 29.2109C15.8255 29.2109 19.477 34.0823 19.7425 34.8118C20.2839 36.2997 19.2923 37.9349 17.5711 37.9122C16.6472 37.9 16.3076 37.389 15.9708 36.9112C15.9005 36.8115 15.7449 36.8604 15.7617 36.9829C15.9013 38.0021 16.4792 39.5169 16.4792 39.7474C16.4792 39.8556 16.3879 39.9434 16.2751 39.9434H14.3836Z" fill="#211C1D"/>
<path d="M109.106 143.582V144.12C109.106 148.567 107.205 151.511 103.885 151.511C100.566 151.511 98.675 148.567 98.675 144.12V143.582C98.675 139.146 100.576 136.224 103.896 136.224C107.205 136.224 109.106 139.135 109.106 143.582ZM107.226 144.109V143.604C107.226 140.027 105.948 137.846 103.885 137.846C101.823 137.846 100.544 140.027 100.544 143.604V144.109C100.544 147.686 101.833 149.878 103.896 149.878C105.948 149.878 107.226 147.686 107.226 144.109Z" fill="#211C1D"/>
<path d="M110.591 136.428C111.171 136.428 111.526 136.825 111.526 137.459V150.275C111.526 150.909 111.171 151.307 110.591 151.307C110.011 151.307 109.646 150.909 109.646 150.275V137.459C109.646 136.825 110.011 136.428 110.591 136.428Z" fill="#211C1D"/>
<path d="M105.891 121.51C106.004 121.51 106.095 121.597 106.095 121.706C106.095 121.936 105.517 123.451 105.377 124.47C105.361 124.593 105.516 124.642 105.586 124.542C105.923 124.064 106.263 123.553 107.187 123.541C108.908 123.518 109.9 125.153 109.358 126.641C109.093 127.371 105.441 132.242 104.945 132.242C104.449 132.242 100.797 127.371 100.532 126.641C99.9905 125.153 100.982 123.518 102.703 123.541C103.627 123.553 103.967 124.064 104.304 124.542C104.374 124.642 104.529 124.593 104.513 124.47C104.373 123.451 103.795 121.936 103.795 121.706C103.795 121.597 103.887 121.51 103.999 121.51H105.891Z" fill="#211C1D"/>
<path d="M34.3005 42.0898C34.0353 42.0898 33.8204 41.8793 33.8204 41.6195C33.8204 41.0663 35.1802 37.4309 35.5086 34.9848C35.5481 34.6906 35.1821 34.5734 35.0167 34.8127C34.224 35.9594 33.425 37.1859 31.2512 37.215C27.2013 37.2695 24.8682 33.3451 26.1421 29.7742C26.7667 28.0232 35.3585 16.3321 36.5259 16.332C37.6932 16.332 46.2851 28.0233 46.9096 29.7742C48.1836 33.3451 45.8505 37.2695 41.8005 37.215C39.6267 37.1859 38.8277 35.9594 38.0351 34.8127C37.8697 34.5734 37.5037 34.6906 37.5431 34.9848C37.8716 37.4309 39.2314 41.0663 39.2314 41.6195C39.2314 41.8793 39.0165 42.0898 38.7513 42.0898H34.3005Z" fill="#211C1D"/>
<path d="M34.3005 85.0195C34.0353 85.0195 33.8204 85.2301 33.8204 85.4899C33.8204 86.0431 35.1802 89.6784 35.5086 92.1246C35.5481 92.4187 35.1821 92.536 35.0167 92.2967C34.224 91.1499 33.425 89.9235 31.2512 89.8943C27.2013 89.8399 24.8682 93.7642 26.1421 97.3352C26.7667 99.0861 35.3585 110.777 36.5259 110.777C37.6932 110.777 46.2851 99.0861 46.9096 97.3352C48.1836 93.7642 45.8505 89.8399 41.8005 89.8943C39.6267 89.9235 38.8277 91.1499 38.0351 92.2967C37.8697 92.536 37.5037 92.4187 37.5431 92.1246C37.8716 89.6784 39.2314 86.0431 39.2314 85.4899C39.2314 85.2301 39.0165 85.0195 38.7513 85.0195H34.3005Z" fill="#211C1D"/>
<path d="M81.5231 42.0898C81.2579 42.0898 81.043 41.8793 81.043 41.6195C81.043 41.0663 82.4028 37.4309 82.7312 34.9848C82.7707 34.6906 82.4047 34.5734 82.2393 34.8127C81.4467 35.9594 80.6476 37.1859 78.4738 37.215C74.4239 37.2695 72.0908 33.3451 73.3647 29.7742C73.9893 28.0232 82.5811 16.3321 83.7485 16.332C84.9159 16.332 93.5077 28.0233 94.1323 29.7742C95.4062 33.3451 93.0731 37.2695 89.0232 37.215C86.8494 37.1859 86.0503 35.9594 85.2577 34.8127C85.0923 34.5734 84.7263 34.6906 84.7658 34.9848C85.0942 37.4309 86.454 41.0663 86.454 41.6195C86.454 41.8793 86.2391 42.0898 85.9739 42.0898H81.5231Z" fill="#211C1D"/>
<path d="M34.3005 76.4336C34.0353 76.4336 33.8204 76.223 33.8204 75.9632C33.8204 75.41 35.1802 71.7747 35.5086 69.3285C35.5481 69.0344 35.1821 68.9171 35.0167 69.1564C34.224 70.3031 33.425 71.5296 31.2512 71.5588C27.2013 71.6132 24.8682 67.6889 26.1421 64.1179C26.7667 62.367 35.3585 50.6758 36.5259 50.6758C37.6932 50.6758 46.2851 62.367 46.9096 64.1179C48.1836 67.6889 45.8505 71.6132 41.8005 71.5588C39.6267 71.5296 38.8277 70.3031 38.0351 69.1564C37.8697 68.9171 37.5037 69.0344 37.5431 69.3285C37.8716 71.7747 39.2314 75.41 39.2314 75.9632C39.2314 76.223 39.0165 76.4336 38.7513 76.4336H34.3005Z" fill="#211C1D"/>
<path d="M34.3005 119.363C34.0353 119.363 33.8204 119.574 33.8204 119.834C33.8204 120.387 35.1802 124.022 35.5086 126.468C35.5481 126.762 35.1821 126.88 35.0167 126.64C34.224 125.494 33.425 124.267 31.2512 124.238C27.2013 124.184 24.8682 128.108 26.1421 131.679C26.7667 133.43 35.3585 145.121 36.5259 145.121C37.6932 145.121 46.2851 133.43 46.9096 131.679C48.1836 128.108 45.8505 124.184 41.8005 124.238C39.6267 124.267 38.8277 125.494 38.0351 126.64C37.8697 126.88 37.5037 126.762 37.5431 126.468C37.8716 124.022 39.2314 120.387 39.2314 119.834C39.2314 119.574 39.0165 119.363 38.7513 119.363H34.3005Z" fill="#211C1D"/>
<path d="M81.5231 76.4336C81.2579 76.4336 81.043 76.223 81.043 75.9632C81.043 75.41 82.4028 71.7747 82.7312 69.3285C82.7707 69.0344 82.4047 68.9171 82.2393 69.1564C81.4467 70.3031 80.6476 71.5296 78.4738 71.5588C74.4239 71.6132 72.0908 67.6889 73.3647 64.1179C73.9893 62.367 82.5811 50.6758 83.7485 50.6758C84.9159 50.6758 93.5077 62.367 94.1323 64.1179C95.4062 67.6889 93.0731 71.6132 89.0232 71.5588C86.8494 71.5296 86.0503 70.3031 85.2577 69.1564C85.0923 68.9171 84.7263 69.0344 84.7658 69.3285C85.0942 71.7747 86.454 75.41 86.454 75.9632C86.454 76.223 86.2391 76.4336 85.9739 76.4336H81.5231Z" fill="#211C1D"/>
<path d="M57.9118 59.2617C57.6466 59.2617 57.4317 59.0511 57.4317 58.7913C57.4317 58.2382 58.7915 54.6028 59.1199 52.1566C59.1594 51.8625 58.7934 51.7453 58.628 51.9845C57.8354 53.1313 57.0363 54.3577 54.8625 54.3869C50.8126 54.4414 48.4795 50.517 49.7534 46.9461C50.378 45.1951 58.9698 33.5039 60.1372 33.5039C61.3046 33.5039 69.8964 45.1951 70.521 46.9461C71.7949 50.517 69.4618 54.4414 65.4119 54.3869C63.2381 54.3577 62.439 53.1313 61.6464 51.9845C61.481 51.7453 61.115 51.8625 61.1545 52.1566C61.4829 54.6028 62.8427 58.2382 62.8427 58.7913C62.8427 59.0511 62.6278 59.2617 62.3626 59.2617H57.9118Z" fill="#211C1D"/>
<path d="M57.9118 102.191C57.6466 102.191 57.4317 102.402 57.4317 102.662C57.4317 103.215 58.7915 106.85 59.1199 109.296C59.1594 109.591 58.7934 109.708 58.628 109.469C57.8354 108.322 57.0363 107.095 54.8625 107.066C50.8126 107.012 48.4795 110.936 49.7534 114.507C50.378 116.258 58.9698 127.949 60.1372 127.949C61.3046 127.949 69.8964 116.258 70.521 114.507C71.7949 110.936 69.4618 107.012 65.4119 107.066C63.2381 107.095 62.439 108.322 61.6464 109.469C61.481 109.708 61.115 109.591 61.1545 109.296C61.4829 106.85 62.8427 103.215 62.8427 102.662C62.8427 102.402 62.6278 102.191 62.3626 102.191H57.9118Z" fill="#211C1D"/>
<path d="M81.5231 119.363C81.2579 119.363 81.043 119.574 81.043 119.834C81.043 120.387 82.4028 124.022 82.7312 126.468C82.7707 126.762 82.4047 126.88 82.2393 126.64C81.4467 125.494 80.6476 124.267 78.4738 124.238C74.4239 124.184 72.0908 128.108 73.3647 131.679C73.9893 133.43 82.5811 145.121 83.7485 145.121C84.9159 145.121 93.5077 133.43 94.1323 131.679C95.4062 128.108 93.0731 124.184 89.0232 124.238C86.8494 124.267 86.0503 125.494 85.2577 126.64C85.0923 126.88 84.7263 126.762 84.7658 126.468C85.0942 124.022 86.454 120.387 86.454 119.834C86.454 119.574 86.2391 119.363 85.9739 119.363H81.5231Z" fill="#211C1D"/>
<path d="M81.5231 85.0195C81.2579 85.0195 81.043 85.2301 81.043 85.4899C81.043 86.0431 82.4028 89.6784 82.7312 92.1246C82.7707 92.4187 82.4047 92.536 82.2393 92.2967C81.4467 91.1499 80.6476 89.9235 78.4738 89.8943C74.4239 89.8399 72.0908 93.7642 73.3647 97.3352C73.9893 99.0861 82.5811 110.777 83.7485 110.777C84.9159 110.777 93.5077 99.0861 94.1323 97.3352C95.4062 93.7642 93.0731 89.8399 89.0232 89.8943C86.8494 89.9235 86.0503 91.1499 85.2577 92.2967C85.0923 92.536 84.7263 92.4187 84.7658 92.1246C85.0942 89.6784 86.454 86.0431 86.454 85.4899C86.454 85.2301 86.2391 85.0195 85.9739 85.0195H81.5231Z" fill="#211C1D"/>
</g>
</g>
<defs>
<filter id="filter0_d_2339_991" x="0.431291" y="0.833749" width="119.412" height="165.025" filterUnits="userSpaceOnUse" color-interpolation-filters="sRGB">
<feFlood flood-opacity="0" result="BackgroundImageFix"/>
<feColorMatrix in="SourceAlpha" type="matrix" values="0 0 0 0 0 0 0 0 0 0 0 0 0 0 0 0 0 0 127 0" result="hardAlpha"/>
<feOffset dy="2.61944"/>
<feGaussianBlur stdDeviation="2.61944"/>
<feComposite in2="hardAlpha" operator="out"/>
<feColorMatrix type="matrix" values="0 0 0 0 0.6256 0 0 0 0 0.63712 0 0 0 0 0.6544 0 0 0 1 0"/>
<feBlend mode="normal" in2="BackgroundImageFix" result="effect1_dropShadow_2339_991"/>
<feBlend mode="normal" in="SourceGraphic" in2="effect1_dropShadow_2339_991" result="shape"/>
</filter>
</defs>
</svg>
