<svg width="120" height="166" viewBox="0 0 120 166" fill="none" xmlns="http://www.w3.org/2000/svg">
<g id="Card Variant">
<g id="Card Back" filter="url(#filter0_d_2339_988)">
<path d="M5.73608 8.81939C5.73608 5.85572 8.13862 3.45319 11.1023 3.45319H109.304C112.268 3.45319 114.67 5.85572 114.67 8.81939V152.634C114.67 155.597 112.268 158 109.304 158H11.1023C8.13862 158 5.73608 155.597 5.73608 152.634V8.81939Z" fill="white"/>
</g>
<g id="Vector">
<path d="M10.6901 23.9189C10.6901 23.5321 10.8728 23.2313 11.5066 22.5116L15.9756 17.398C17.1896 16.0121 17.6515 15.1097 17.6515 14.0999C17.6515 12.5851 16.5665 11.5753 14.9336 11.5753C13.5477 11.5753 12.5272 12.4025 12.2049 13.7991C12.0545 14.3685 11.7537 14.6585 11.3132 14.6585C10.7868 14.6585 10.443 14.261 10.443 13.6809C10.443 11.8546 12.2156 9.94238 15.0518 9.94238C17.6945 9.94238 19.553 11.6183 19.553 13.9817C19.553 15.3783 19.0051 16.3989 17.0714 18.6012L13.0965 23.1454V23.2743H19.0589C19.6282 23.2743 19.9935 23.5859 19.9935 24.1015C19.9935 24.6064 19.6497 24.918 19.0589 24.918H11.9685C11.1843 24.918 10.6901 24.542 10.6901 23.9189Z" fill="#211C1D"/>
<path d="M14.3394 39.9434C14.2227 39.9434 14.1282 39.85 14.1282 39.7349C14.1282 39.3484 14.8219 37.9049 14.9606 36.7751C14.9756 36.6536 14.7975 36.6085 14.732 36.7124C14.3747 37.2796 13.8876 38.0732 12.7006 38.0455L12.6775 38.0462C12.6621 38.0468 12.6468 38.0473 12.6312 38.0473C11.3422 38.0473 10.2974 36.9137 10.2974 35.5153C10.2974 34.117 11.3422 32.9834 12.6312 32.9834C12.8829 32.9834 13.1252 33.0268 13.3522 33.1068C13.4052 33.1255 13.4592 33.0645 13.4329 33.0154C13.2317 32.6414 13.1163 32.2065 13.1163 31.7422C13.1163 30.3638 14.1208 29.2109 15.3953 29.2109C16.6697 29.2109 17.6742 30.3638 17.6742 31.7422C17.6742 32.2065 17.5588 32.6414 17.3577 33.0154C17.3313 33.0645 17.3853 33.1255 17.4383 33.1068C17.6654 33.0268 17.9076 32.9834 18.1593 32.9834C19.4483 32.9834 20.4932 34.117 20.4932 35.5153C20.4932 36.9137 19.4483 38.0473 18.1593 38.0473C18.1438 38.0473 18.1284 38.0468 18.113 38.0462L18.0899 38.0455C16.903 38.0732 16.4158 37.2796 16.0586 36.7124C15.9931 36.6085 15.815 36.6536 15.8299 36.7751C15.9686 37.9049 16.6624 39.3484 16.6624 39.7349C16.6624 39.85 16.5678 39.9434 16.4511 39.9434H14.3394Z" fill="#211C1D"/>
<path d="M109.716 137.534C109.716 137.921 109.533 138.222 108.9 138.942L104.431 144.055C103.217 145.441 102.755 146.343 102.755 147.353C102.755 148.868 103.84 149.878 105.473 149.878C106.858 149.878 107.879 149.051 108.201 147.654C108.352 147.085 108.653 146.795 109.093 146.795C109.619 146.795 109.963 147.192 109.963 147.772C109.963 149.598 108.191 151.511 105.354 151.511C102.712 151.511 100.853 149.835 100.853 147.471C100.853 146.075 101.401 145.054 103.335 142.852L107.31 138.308V138.179H101.347C100.778 138.179 100.413 137.867 100.413 137.352C100.413 136.847 100.757 136.535 101.347 136.535H108.438C109.222 136.535 109.716 136.911 109.716 137.534Z" fill="#211C1D"/>
<path d="M106.067 121.51C106.183 121.51 106.278 121.603 106.278 121.718C106.278 122.105 105.584 123.548 105.446 124.678C105.431 124.799 105.609 124.845 105.674 124.741C106.031 124.174 106.519 123.38 107.706 123.408L107.729 123.407C107.744 123.406 107.759 123.406 107.775 123.406C109.064 123.406 110.109 124.539 110.109 125.938C110.109 127.336 109.064 128.47 107.775 128.47C107.523 128.47 107.281 128.426 107.054 128.346C107.001 128.328 106.947 128.389 106.973 128.438C107.174 128.812 107.29 129.247 107.29 129.711C107.29 131.089 106.285 132.242 105.011 132.242C103.736 132.242 102.732 131.089 102.732 129.711C102.732 129.247 102.847 128.812 103.049 128.438C103.075 128.389 103.021 128.328 102.968 128.346C102.741 128.426 102.499 128.47 102.247 128.47C100.958 128.47 99.9131 127.336 99.9131 125.938C99.9131 124.539 100.958 123.406 102.247 123.406C102.262 123.406 102.278 123.406 102.293 123.407L102.316 123.408C103.503 123.38 103.99 124.174 104.348 124.741C104.413 124.845 104.591 124.799 104.576 124.678C104.438 123.548 103.744 122.105 103.744 121.718C103.744 121.603 103.838 121.51 103.955 121.51H106.067Z" fill="#211C1D"/>
<path d="M57.7024 42.0898C57.4261 42.0898 57.2021 41.8658 57.2021 41.5894C57.2021 40.6619 58.8452 37.1975 59.1737 34.486C59.2091 34.1944 58.7872 34.0861 58.6322 34.3356C57.7861 35.6967 56.6322 37.6015 53.821 37.535L53.7664 37.5367C53.7299 37.538 53.6935 37.5392 53.6567 37.5392C50.6039 37.5392 48.1291 34.8186 48.1291 31.4626C48.1291 28.1065 50.6039 25.3859 53.6567 25.3859C54.2528 25.3859 54.8266 25.49 55.3644 25.6821C55.4898 25.7269 55.6177 25.5805 55.5553 25.4628C55.0789 24.5651 54.8055 23.5214 54.8055 22.4071C54.8055 19.0989 57.1846 16.332 60.2031 16.332C63.2216 16.332 65.6007 19.0989 65.6007 22.4071C65.6007 23.5214 65.3273 24.5651 64.8509 25.4628C64.7885 25.5805 64.9164 25.7269 65.0418 25.6821C65.5796 25.49 66.1535 25.3859 66.7495 25.3859C69.8024 25.3859 72.2771 28.1065 72.2771 31.4626C72.2771 34.8186 69.8024 37.5392 66.7495 37.5392C66.7127 37.5392 66.6763 37.538 66.6398 37.5367L66.5852 37.535C63.774 37.6015 62.6201 35.6967 61.7741 34.3356C61.619 34.0861 61.1971 34.1944 61.2325 34.486C61.561 37.1975 63.2042 40.6619 63.2042 41.5894C63.2042 41.8658 62.9801 42.0898 62.7038 42.0898H57.7024Z" fill="#211C1D"/>
<path d="M57.7024 119.363C57.4261 119.363 57.2021 119.587 57.2021 119.864C57.2021 120.791 58.8452 124.256 59.1737 126.967C59.2091 127.259 58.7872 127.367 58.6322 127.117C57.7861 125.756 56.6322 123.852 53.821 123.918L53.7664 123.916C53.7299 123.915 53.6935 123.914 53.6567 123.914C50.6039 123.914 48.1291 126.634 48.1291 129.991C48.1291 133.347 50.6039 136.067 53.6567 136.067C54.2528 136.067 54.8266 135.963 55.3644 135.771C55.4898 135.726 55.6177 135.873 55.5553 135.99C55.0789 136.888 54.8055 137.932 54.8055 139.046C54.8055 142.354 57.1846 145.121 60.2031 145.121C63.2216 145.121 65.6007 142.354 65.6007 139.046C65.6007 137.932 65.3273 136.888 64.8509 135.99C64.7885 135.873 64.9164 135.726 65.0418 135.771C65.5796 135.963 66.1535 136.067 66.7495 136.067C69.8024 136.067 72.2771 133.347 72.2771 129.991C72.2771 126.634 69.8024 123.914 66.7495 123.914C66.7127 123.914 66.6763 123.915 66.6398 123.916L66.5852 123.918C63.774 123.852 62.6201 125.756 61.7741 127.117C61.619 127.367 61.1971 127.259 61.2325 126.967C61.561 124.256 63.2042 120.791 63.2042 119.864C63.2042 119.587 62.9801 119.363 62.7038 119.363H57.7024Z" fill="#211C1D"/>
</g>
</g>
<defs>
<filter id="filter0_d_2339_988" x="0.497209" y="0.833749" width="119.412" height="165.025" filterUnits="userSpaceOnUse" color-interpolation-filters="sRGB">
<feFlood flood-opacity="0" result="BackgroundImageFix"/>
<feColorMatrix in="SourceAlpha" type="matrix" values="0 0 0 0 0 0 0 0 0 0 0 0 0 0 0 0 0 0 127 0" result="hardAlpha"/>
<feOffset dy="2.61944"/>
<feGaussianBlur stdDeviation="2.61944"/>
<feComposite in2="hardAlpha" operator="out"/>
<feColorMatrix type="matrix" values="0 0 0 0 0.6256 0 0 0 0 0.63712 0 0 0 0 0.6544 0 0 0 1 0"/>
<feBlend mode="normal" in2="BackgroundImageFix" result="effect1_dropShadow_2339_988"/>
<feBlend mode="normal" in="SourceGraphic" in2="effect1_dropShadow_2339_988" result="shape"/>
</filter>
</defs>
</svg>
