<svg width="120" height="166" viewBox="0 0 120 166" fill="none" xmlns="http://www.w3.org/2000/svg">
<g id="Card Variant">
<g id="Card Back" filter="url(#filter0_d_2339_985)">
<path d="M5.80212 8.81939C5.80212 5.85572 8.20466 3.45319 11.1683 3.45319H109.37C112.334 3.45319 114.736 5.85572 114.736 8.81939V152.634C114.736 155.597 112.334 158 109.37 158H11.1683C8.20466 158 5.80212 155.597 5.80212 152.634V8.81939Z" fill="white"/>
</g>
<g id="Vector">
<path d="M10.7562 23.9189C10.7562 23.5321 10.9389 23.2313 11.5727 22.5116L16.0417 17.398C17.2557 16.0121 17.7176 15.1097 17.7176 14.0999C17.7176 12.5851 16.6326 11.5753 14.9997 11.5753C13.6139 11.5753 12.5933 12.4025 12.271 13.7991C12.1206 14.3685 11.8198 14.6585 11.3793 14.6585C10.8529 14.6585 10.5092 14.261 10.5092 13.6809C10.5092 11.8546 12.2817 9.94238 15.1179 9.94238C17.7606 9.94238 19.6191 11.6183 19.6191 13.9817C19.6191 15.3783 19.0712 16.3989 17.1375 18.6012L13.1627 23.1454V23.2743H19.125C19.6943 23.2743 20.0596 23.5859 20.0596 24.1015C20.0596 24.6064 19.7158 24.918 19.125 24.918H12.0346C11.2504 24.918 10.7562 24.542 10.7562 23.9189Z" fill="#BC1E24"/>
<path d="M13.1725 29.7479C14.6306 29.7701 15.1967 31.0346 15.3829 31.6308C15.4017 31.6911 15.5216 31.6911 15.5404 31.6308C15.7264 31.0346 16.2922 29.7701 17.7502 29.7479C19.6593 29.7187 21.0956 31.856 19.7858 34.0024C18.6184 35.9154 15.5054 39.4068 15.4614 39.4067C15.4166 39.4067 12.3044 35.9156 11.1369 34.0024C9.82714 31.856 11.2634 29.7187 13.1725 29.7479Z" fill="#BC1E24"/>
<path d="M109.782 137.534C109.782 137.921 109.6 138.222 108.966 138.942L104.497 144.055C103.283 145.441 102.821 146.343 102.821 147.353C102.821 148.868 103.906 149.878 105.539 149.878C106.925 149.878 107.945 149.051 108.267 147.654C108.418 147.085 108.719 146.795 109.159 146.795C109.685 146.795 110.029 147.192 110.029 147.772C110.029 149.598 108.257 151.511 105.421 151.511C102.778 151.511 100.919 149.835 100.919 147.471C100.919 146.075 101.467 145.054 103.401 142.852L107.376 138.308V138.179H101.413C100.844 138.179 100.479 137.867 100.479 137.352C100.479 136.847 100.823 136.535 101.413 136.535H108.504C109.288 136.535 109.782 136.911 109.782 137.534Z" fill="#BC1E24"/>
<path d="M107.366 131.705C105.908 131.683 105.342 130.419 105.156 129.822C105.137 129.762 105.017 129.762 104.998 129.822C104.812 130.419 104.246 131.683 102.788 131.705C100.879 131.734 99.4428 129.597 100.753 127.451C101.92 125.538 105.033 122.046 105.077 122.046C105.122 122.046 108.234 125.537 109.402 127.451C110.711 129.597 109.275 131.734 107.366 131.705Z" fill="#BC1E24"/>
<path d="M54.7531 17.5402C58.267 17.594 59.6315 20.6497 60.0801 22.0905C60.1254 22.2363 60.4143 22.2362 60.4596 22.0905C60.9078 20.6497 62.2715 17.594 65.7853 17.5402C70.3863 17.4696 73.8478 22.6349 70.6912 27.8219C67.8777 32.4451 60.3754 40.8825 60.2692 40.8824C60.1613 40.8824 52.6609 32.4456 49.8472 27.8219C46.6907 22.6349 50.1521 17.4696 54.7531 17.5402Z" fill="#BC1E24"/>
<path d="M54.7531 143.913C58.267 143.859 59.6315 140.803 60.0801 139.363C60.1254 139.217 60.4143 139.217 60.4596 139.363C60.9078 140.803 62.2715 143.859 65.7853 143.913C70.3863 143.983 73.8478 138.818 70.6912 133.631C67.8777 129.008 60.3754 120.571 60.2692 120.571C60.1613 120.571 52.6609 129.008 49.8472 133.631C46.6907 138.818 50.1521 143.983 54.7531 143.913Z" fill="#BC1E24"/>
</g>
</g>
<defs>
<filter id="filter0_d_2339_985" x="0.563249" y="0.833749" width="119.412" height="165.025" filterUnits="userSpaceOnUse" color-interpolation-filters="sRGB">
<feFlood flood-opacity="0" result="BackgroundImageFix"/>
<feColorMatrix in="SourceAlpha" type="matrix" values="0 0 0 0 0 0 0 0 0 0 0 0 0 0 0 0 0 0 127 0" result="hardAlpha"/>
<feOffset dy="2.61944"/>
<feGaussianBlur stdDeviation="2.61944"/>
<feComposite in2="hardAlpha" operator="out"/>
<feColorMatrix type="matrix" values="0 0 0 0 0.6256 0 0 0 0 0.63712 0 0 0 0 0.6544 0 0 0 1 0"/>
<feBlend mode="normal" in2="BackgroundImageFix" result="effect1_dropShadow_2339_985"/>
<feBlend mode="normal" in="SourceGraphic" in2="effect1_dropShadow_2339_985" result="shape"/>
</filter>
</defs>
</svg>
