<svg width="95" height="130" viewBox="0 0 95 130" fill="none" xmlns="http://www.w3.org/2000/svg">
<g id="Card Variant">
<g id="Card Back" filter="url(#filter0_d_2339_1074)">
<path d="M5.22144 7.58513C5.22144 5.30312 7.07137 3.45319 9.35338 3.45319H84.968C87.25 3.45319 89.0999 5.30312 89.0999 7.58513V118.321C89.0999 120.603 87.25 122.453 84.968 122.453H9.35338C7.07137 122.453 5.22144 120.603 5.22144 118.321V7.58513Z" fill="white"/>
</g>
<g id="Vector">
<path d="M8.65552 17.6649C8.65552 17.2926 8.91195 17.0279 9.27591 17.0279C9.56543 17.0279 9.74742 17.1768 9.96249 17.5987C10.3926 18.4838 11.2529 18.9801 12.3779 18.9801C13.8586 18.9801 14.8016 18.1694 14.8016 16.9038C14.8016 15.6382 13.8338 14.7862 12.3944 14.7862H11.3604C10.9799 14.7862 10.6987 14.5132 10.6987 14.1575C10.6987 13.7936 10.9634 13.5371 11.3604 13.5371H12.3365C13.5442 13.5371 14.4211 12.7182 14.4211 11.585C14.4211 10.4517 13.5691 9.69068 12.3035 9.69068C11.3191 9.69068 10.5746 10.1787 10.2437 11.0307C10.0783 11.4857 9.8715 11.6594 9.54889 11.6594C9.16838 11.6594 8.92022 11.3864 8.92022 10.9728C8.92022 9.69068 10.3016 8.44989 12.3365 8.44989C14.4045 8.44989 15.8769 9.68241 15.8769 11.403C15.8769 12.652 14.9422 13.8432 13.7924 14.0417V14.1245C15.1904 14.2816 16.2574 15.5059 16.2574 16.9286C16.2574 18.8643 14.6527 20.2209 12.3531 20.2209C10.2189 20.2209 8.65552 18.9305 8.65552 17.6649Z" fill="#BC1E24"/>
<path d="M12.7333 23.3295C12.7018 23.2722 12.6161 23.2722 12.5845 23.3295C11.6368 25.0519 10.9534 25.9633 9.58283 27.3627C9.55237 27.3938 9.55237 27.4433 9.58283 27.4744C10.9534 28.8737 11.6368 29.7851 12.5845 31.5075C12.6161 31.5648 12.7018 31.5648 12.7333 31.5075C13.6811 29.7851 14.3645 28.8737 15.7351 27.4744C15.7655 27.4433 15.7655 27.3938 15.7351 27.3627C14.3645 25.9633 13.6811 25.0519 12.7333 23.3295Z" fill="#BC1E24"/>
<path d="M85.0455 108.879C85.4094 108.879 85.6658 108.614 85.6658 108.242C85.6658 106.976 84.1024 105.686 81.9683 105.686C79.6687 105.686 78.0639 107.042 78.0639 108.978C78.0639 110.401 79.131 111.625 80.529 111.782V111.865C79.3792 112.063 78.4444 113.254 78.4444 114.503C78.4444 116.224 79.9168 117.457 81.9848 117.457C84.0197 117.457 85.4011 116.216 85.4011 114.934C85.4011 114.52 85.153 114.247 84.7725 114.247C84.4499 114.247 84.2431 114.421 84.0776 114.876C83.7468 115.728 83.0023 116.216 82.0179 116.216C80.7523 116.216 79.9003 115.455 79.9003 114.321C79.9003 113.188 80.7771 112.369 81.9848 112.369H82.9609C83.358 112.369 83.6227 112.113 83.6227 111.749C83.6227 111.393 83.3414 111.12 82.9609 111.12H81.9269C80.4876 111.12 79.5198 110.268 79.5198 109.003C79.5198 107.737 80.4628 106.926 81.9435 106.926C83.0685 106.926 83.9287 107.423 84.3589 108.308C84.574 108.73 84.7559 108.879 85.0455 108.879Z" fill="#BC1E24"/>
<path d="M81.588 102.577C81.6195 102.634 81.7053 102.634 81.7368 102.577C82.6845 100.855 83.368 99.9431 84.7385 98.5438C84.769 98.5127 84.769 98.4632 84.7385 98.4321C83.368 97.0328 82.6845 96.1213 81.7368 94.399C81.7053 94.3417 81.6195 94.3417 81.588 94.399C80.6403 96.1213 79.9568 97.0328 78.5863 98.4321C78.5558 98.4632 78.5558 98.5127 78.5863 98.5438C79.9568 99.9431 80.6403 100.855 81.588 102.577Z" fill="#BC1E24"/>
<path d="M46.9747 13.0641C47.0535 12.9209 47.2679 12.9209 47.3467 13.0641C49.716 17.37 51.4246 19.6486 54.851 23.1469C54.9271 23.2247 54.9271 23.3485 54.851 23.4262C51.4246 26.9245 49.716 29.2031 47.3467 33.509C47.2679 33.6522 47.0535 33.6522 46.9747 33.509C44.6054 29.2031 42.8967 26.9245 39.4704 23.4262C39.3942 23.3485 39.3942 23.2247 39.4704 23.1469C42.8967 19.6486 44.6054 17.37 46.9747 13.0641Z" fill="#BC1E24"/>
<path d="M47.3467 52.7308C47.2679 52.5876 47.0535 52.5876 46.9747 52.7308C44.6054 57.0367 42.8967 59.3153 39.4704 62.8136C39.3942 62.8914 39.3942 63.0151 39.4704 63.0929C42.8967 66.5912 44.6054 68.8698 46.9747 73.1757C47.0535 73.3189 47.2679 73.3189 47.3467 73.1757C49.716 68.8698 51.4246 66.5912 54.851 63.0929C54.9271 63.0151 54.9271 62.8914 54.851 62.8136C51.4246 59.3153 49.716 57.0367 47.3467 52.7308Z" fill="#BC1E24"/>
<path d="M46.9747 92.3974C47.0535 92.2542 47.2679 92.2542 47.3467 92.3974C49.716 96.7033 51.4246 98.9819 54.851 102.48C54.9271 102.558 54.9271 102.682 54.851 102.76C51.4246 106.258 49.716 108.536 47.3467 112.842C47.2679 112.986 47.0535 112.986 46.9747 112.842C44.6054 108.536 42.8967 106.258 39.4704 102.76C39.3942 102.682 39.3942 102.558 39.4704 102.48C42.8967 98.9819 44.6054 96.7033 46.9747 92.3974Z" fill="#BC1E24"/>
</g>
</g>
<defs>
<filter id="filter0_d_2339_1074" x="0.187971" y="0.936454" width="93.9453" height="129.067" filterUnits="userSpaceOnUse" color-interpolation-filters="sRGB">
<feFlood flood-opacity="0" result="BackgroundImageFix"/>
<feColorMatrix in="SourceAlpha" type="matrix" values="0 0 0 0 0 0 0 0 0 0 0 0 0 0 0 0 0 0 127 0" result="hardAlpha"/>
<feOffset dy="2.51673"/>
<feGaussianBlur stdDeviation="2.51673"/>
<feComposite in2="hardAlpha" operator="out"/>
<feColorMatrix type="matrix" values="0 0 0 0 0.6256 0 0 0 0 0.63712 0 0 0 0 0.6544 0 0 0 1 0"/>
<feBlend mode="normal" in2="BackgroundImageFix" result="effect1_dropShadow_2339_1074"/>
<feBlend mode="normal" in="SourceGraphic" in2="effect1_dropShadow_2339_1074" result="shape"/>
</filter>
</defs>
</svg>
