<svg width="70" height="98" viewBox="0 0 70 98" fill="none" xmlns="http://www.w3.org/2000/svg">
<g id="Card Variant">
<g id="Card Back" filter="url(#filter0_d_2339_944)">
<path d="M1.68677 4.28358C1.68677 2.47011 3.15688 1 4.97035 1H65.0598C66.8733 1 68.3434 2.47011 68.3434 4.28358V92.2835C68.3434 94.097 66.8733 95.5671 65.0598 95.5671H4.97035C3.15688 95.5671 1.68677 94.097 1.68677 92.2835V4.28358Z" fill="white"/>
</g>
<g id="Vector">
<path d="M4.3501 12.3463C4.3501 12.0176 4.54073 11.7941 4.82997 11.7941C5.05347 11.7941 5.19809 11.9125 5.369 12.2477C5.73055 12.9511 6.33532 13.3324 7.12414 13.3324C8.32053 13.3324 9.15538 12.4909 9.15538 11.2814C9.15538 10.1244 8.34683 9.30933 7.2096 9.30933C6.69686 9.30933 6.24329 9.48024 5.86202 9.82206C5.38215 10.2691 5.25068 10.3479 5.04032 10.3479C4.66563 10.3479 4.475 10.0521 4.50786 9.54597L4.7971 5.86477C4.83654 5.37833 5.11921 5.14825 5.68453 5.14825H9.37231C9.75357 5.14825 9.97707 5.33889 9.97707 5.66099C9.97707 5.97652 9.76015 6.15401 9.37231 6.15401H5.82915L5.57936 9.07925H5.64509C5.9409 8.63882 6.71001 8.32329 7.46597 8.32329C9.13566 8.32329 10.3123 9.51968 10.3123 11.2222C10.3123 13.0365 9.00419 14.325 7.17016 14.325C5.43474 14.325 4.3501 13.2666 4.3501 12.3463Z" fill="#211C1D"/>
<path d="M7.0184 23.3283C6.94943 23.3283 6.89353 23.2747 6.89353 23.2084C6.89353 23.0674 7.24717 22.1405 7.33257 21.5169C7.34284 21.4419 7.24765 21.412 7.20464 21.473C6.99851 21.7653 6.79072 22.078 6.22541 22.0855C5.17219 22.0994 4.56546 21.0988 4.89675 20.1884C5.05918 19.742 7.29353 16.7612 7.59712 16.7612C7.9007 16.7612 10.1351 19.742 10.2975 20.1884C10.6288 21.0988 10.0221 22.0994 8.96884 22.0855C8.40352 22.078 8.19573 21.7653 7.9896 21.473C7.94659 21.412 7.85141 21.4419 7.86167 21.5169C7.94708 22.1405 8.30071 23.0674 8.30071 23.2084C8.30071 23.2747 8.24482 23.3283 8.17585 23.3283H7.0184Z" fill="#211C1D"/>
<path d="M65.6799 84.2208C65.6799 84.5495 65.4893 84.773 65.2 84.773C64.9765 84.773 64.8319 84.6546 64.661 84.3194C64.2995 83.616 63.6947 83.2347 62.9059 83.2347C61.7095 83.2347 60.8746 84.0762 60.8746 85.2857C60.8746 86.4426 61.6832 87.2578 62.8204 87.2578C63.3331 87.2578 63.7867 87.0869 64.168 86.745C64.6479 86.298 64.7793 86.2191 64.9897 86.2191C65.3644 86.2191 65.555 86.515 65.5221 87.0211L65.2329 90.7023C65.1935 91.1888 64.9108 91.4188 64.3455 91.4188H60.6577C60.2764 91.4188 60.0529 91.2282 60.0529 90.9061C60.0529 90.5906 60.2699 90.4131 60.6577 90.4131H64.2009L64.4507 87.4878H64.3849C64.0891 87.9283 63.32 88.2438 62.564 88.2438C60.8944 88.2438 59.7177 87.0474 59.7177 85.3449C59.7177 83.5306 61.0258 82.2421 62.8599 82.2421C64.5953 82.2421 65.6799 83.3005 65.6799 84.2208Z" fill="#211C1D"/>
<path d="M63.0116 73.2387C63.0806 73.2387 63.1365 73.2924 63.1365 73.3587C63.1365 73.4997 62.7828 74.4266 62.6974 75.0502C62.6872 75.1252 62.7824 75.1551 62.8254 75.0941C63.0315 74.8018 63.2393 74.4891 63.8046 74.4816C64.8578 74.4677 65.4646 75.4683 65.1333 76.3787C64.9708 76.8251 62.7365 79.8059 62.4329 79.8059C62.1293 79.8059 59.8949 76.8251 59.7325 76.3787C59.4012 75.4683 60.008 74.4677 61.0612 74.4816C61.6265 74.4891 61.8343 74.8018 62.0404 75.0941C62.0834 75.1551 62.1786 75.1252 62.1683 75.0502C62.0829 74.4266 61.7293 73.4997 61.7293 73.3587C61.7293 73.2924 61.7852 73.2387 61.8542 73.2387H63.0116Z" fill="#211C1D"/>
<path d="M19.2056 24.6418C19.0433 24.6418 18.9117 24.5129 18.9117 24.354C18.9117 24.0155 19.7438 21.791 19.9448 20.2942C19.9689 20.1142 19.745 20.0425 19.6438 20.1889C19.1588 20.8906 18.6698 21.641 17.3397 21.6589C14.8615 21.6922 13.4339 19.2909 14.2134 17.1058C14.5956 16.0344 19.8529 8.8806 20.5673 8.8806C21.2816 8.88059 26.5389 16.0344 26.9211 17.1058C27.7006 19.2909 26.273 21.6922 23.7948 21.6589C22.4647 21.641 21.9757 20.8906 21.4907 20.1889C21.3895 20.0425 21.1656 20.1142 21.1897 20.2942C21.3907 21.791 22.2228 24.0155 22.2228 24.354C22.2228 24.5129 22.0912 24.6418 21.929 24.6418H19.2056Z" fill="#211C1D"/>
<path d="M19.2056 71.9253C19.0433 71.9253 18.9117 72.0542 18.9117 72.2131C18.9117 72.5516 19.7438 74.7761 19.9448 76.2729C19.9689 76.4529 19.745 76.5246 19.6438 76.3782C19.1588 75.6765 18.6698 74.9261 17.3397 74.9082C14.8615 74.8749 13.4339 77.2762 14.2134 79.4613C14.5956 80.5327 19.8529 87.6865 20.5673 87.6865C21.2816 87.6865 26.5389 80.5327 26.9211 79.4613C27.7006 77.2762 26.273 74.8749 23.7948 74.9082C22.4647 74.9261 21.9757 75.6765 21.4907 76.3782C21.3895 76.5246 21.1656 76.4529 21.1897 76.2729C21.3907 74.7761 22.2228 72.5516 22.2228 72.2131C22.2228 72.0542 22.0912 71.9253 21.929 71.9253H19.2056Z" fill="#211C1D"/>
<path d="M48.1011 24.6418C47.9388 24.6418 47.8072 24.5129 47.8072 24.354C47.8072 24.0155 48.6393 21.791 48.8403 20.2942C48.8644 20.1142 48.6405 20.0425 48.5393 20.1889C48.0543 20.8906 47.5653 21.641 46.2352 21.6589C43.757 21.6922 42.3294 19.2909 43.1089 17.1058C43.4911 16.0344 48.7484 8.8806 49.4628 8.8806C50.1771 8.88059 55.4344 16.0344 55.8166 17.1058C56.5961 19.2909 55.1685 21.6922 52.6903 21.6589C51.3602 21.641 50.8712 20.8906 50.3862 20.1889C50.285 20.0425 50.0611 20.1142 50.0852 20.2942C50.2862 21.791 51.1183 24.0155 51.1183 24.354C51.1183 24.5129 50.9867 24.6418 50.8245 24.6418H48.1011Z" fill="#211C1D"/>
<path d="M33.6533 56.1641C33.491 56.1641 33.3595 56.0353 33.3595 55.8763C33.3595 55.5378 34.1916 53.3134 34.3925 51.8166C34.4167 51.6366 34.1927 51.5648 34.0915 51.7112C33.6065 52.4129 33.1176 53.1634 31.7874 53.1813C29.3093 53.2146 27.8817 50.8133 28.6612 48.6282C29.0434 47.5568 34.3007 40.403 35.015 40.403C35.7293 40.403 40.9866 47.5568 41.3688 48.6282C42.1483 50.8133 40.7207 53.2146 38.2426 53.1813C36.9124 53.1634 36.4235 52.4129 35.9385 51.7112C35.8373 51.5648 35.6133 51.6366 35.6375 51.8166C35.8384 53.3134 36.6705 55.5378 36.6705 55.8763C36.6705 56.0353 36.539 56.1641 36.3767 56.1641H33.6533Z" fill="#211C1D"/>
<path d="M48.1011 71.9253C47.9388 71.9253 47.8072 72.0542 47.8072 72.2131C47.8072 72.5516 48.6393 74.7761 48.8403 76.2729C48.8644 76.4529 48.6405 76.5246 48.5393 76.3782C48.0543 75.6765 47.5653 74.9261 46.2352 74.9082C43.757 74.8749 42.3294 77.2762 43.1089 79.4613C43.4911 80.5327 48.7484 87.6865 49.4628 87.6865C50.1771 87.6865 55.4344 80.5327 55.8166 79.4613C56.5961 77.2762 55.1685 74.8749 52.6903 74.9082C51.3602 74.9261 50.8712 75.6765 50.3862 76.3782C50.285 76.5246 50.0611 76.4529 50.0852 76.2729C50.2862 74.7761 51.1183 72.5516 51.1183 72.2131C51.1183 72.0542 50.9867 71.9253 50.8245 71.9253H48.1011Z" fill="#211C1D"/>
</g>
</g>
<defs>
<filter id="filter0_d_2339_944" x="0.373336" y="0.343284" width="69.2836" height="97.1939" filterUnits="userSpaceOnUse" color-interpolation-filters="sRGB">
<feFlood flood-opacity="0" result="BackgroundImageFix"/>
<feColorMatrix in="SourceAlpha" type="matrix" values="0 0 0 0 0 0 0 0 0 0 0 0 0 0 0 0 0 0 127 0" result="hardAlpha"/>
<feOffset dy="0.656716"/>
<feGaussianBlur stdDeviation="0.656716"/>
<feComposite in2="hardAlpha" operator="out"/>
<feColorMatrix type="matrix" values="0 0 0 0 0.6256 0 0 0 0 0.63712 0 0 0 0 0.6544 0 0 0 1 0"/>
<feBlend mode="normal" in2="BackgroundImageFix" result="effect1_dropShadow_2339_944"/>
<feBlend mode="normal" in="SourceGraphic" in2="effect1_dropShadow_2339_944" result="shape"/>
</filter>
</defs>
</svg>
