<svg width="121" height="166" viewBox="0 0 121 166" fill="none" xmlns="http://www.w3.org/2000/svg">
<g id="Card Variant">
<g id="Card Back" filter="url(#filter0_d_2339_976)">
<path d="M6 8.81939C6 5.85572 8.40253 3.45319 11.3662 3.45319H109.568C112.532 3.45319 114.934 5.85572 114.934 8.81939V152.634C114.934 155.597 112.532 158 109.568 158H11.3662C8.40253 158 6 155.597 6 152.634V8.81939Z" fill="white"/>
</g>
<g id="Vector">
<path d="M10.3094 18.0104C10.3094 12.843 12.2969 9.97467 15.8635 9.97467C17.013 9.97467 18.1195 10.2862 18.936 10.8448C19.645 11.3068 20.0747 11.8976 20.0747 12.3918C20.0747 12.8538 19.7417 13.1975 19.2798 13.1975C18.979 13.1975 18.7534 13.0794 18.3666 12.7034C17.5931 11.9406 16.7874 11.5968 15.8313 11.5968C13.4356 11.5968 12.168 13.7025 12.1357 17.7203H12.2217C12.7159 16.4097 14.2521 15.4858 15.928 15.4858C18.6567 15.4858 20.5689 17.4517 20.5689 20.2556C20.5689 23.2099 18.5493 25.2188 15.5627 25.2188C13.7472 25.2188 12.2969 24.4668 11.416 23.081C10.6747 21.8993 10.3094 20.2341 10.3094 18.0104ZM12.4043 20.3201C12.4043 22.2431 13.7364 23.6074 15.6379 23.6074C17.4857 23.6074 18.7211 22.3075 18.7211 20.3308C18.7211 18.3756 17.475 17.0865 15.5627 17.0865C13.7042 17.0865 12.4043 18.4186 12.4043 20.3201Z" fill="#BC1E24"/>
<path d="M13.3703 29.7479C14.8283 29.7702 15.3945 31.0346 15.5807 31.6308C15.5995 31.6911 15.7193 31.6911 15.7382 31.6308C15.9241 31.0346 16.49 29.7702 17.948 29.7479C19.8571 29.7187 21.2934 31.8561 19.9836 34.0024C18.8162 35.9155 15.7032 39.4068 15.6591 39.4068C15.6144 39.4068 12.5022 35.9157 11.3347 34.0024C10.0249 31.8561 11.4612 29.7187 13.3703 29.7479Z" fill="#BC1E24"/>
<path d="M110.625 143.443C110.625 148.61 108.637 151.479 105.07 151.479C103.921 151.479 102.814 151.167 101.998 150.608C101.289 150.146 100.859 149.556 100.859 149.061C100.859 148.599 101.192 148.256 101.654 148.256C101.955 148.256 102.181 148.374 102.567 148.75C103.341 149.513 104.147 149.856 105.103 149.856C107.498 149.856 108.766 147.751 108.798 143.733H108.712C108.218 145.044 106.682 145.967 105.006 145.967C102.277 145.967 100.365 144.001 100.365 141.198C100.365 138.243 102.385 136.234 105.371 136.234C107.187 136.234 108.637 136.986 109.518 138.372C110.259 139.554 110.625 141.219 110.625 143.443ZM108.53 141.133C108.53 139.21 107.198 137.846 105.296 137.846C103.448 137.846 102.213 139.146 102.213 141.122C102.213 143.078 103.459 144.367 105.371 144.367C107.23 144.367 108.53 143.035 108.53 141.133Z" fill="#BC1E24"/>
<path d="M107.564 131.705C106.106 131.683 105.539 130.419 105.353 129.822C105.334 129.762 105.215 129.762 105.196 129.822C105.01 130.419 104.444 131.683 102.986 131.705C101.077 131.734 99.6406 129.597 100.95 127.451C102.118 125.538 105.231 122.046 105.275 122.046C105.32 122.046 108.432 125.538 109.599 127.451C110.909 129.597 109.473 131.734 107.564 131.705Z" fill="#BC1E24"/>
<path d="M31.3395 17.5402C34.8534 17.594 36.2179 20.6498 36.6665 22.0906C36.7119 22.2363 37.0008 22.2363 37.0461 22.0905C37.4943 20.6497 38.8579 17.594 42.3718 17.5402C46.9727 17.4697 50.4342 22.635 47.2777 27.8219C44.4642 32.4451 36.9618 40.8825 36.8556 40.8825C36.7477 40.8825 29.2474 32.4456 26.4337 27.8219C23.2772 22.635 26.7386 17.4697 31.3395 17.5402Z" fill="#BC1E24"/>
<path d="M31.3395 143.913C34.8534 143.859 36.2179 140.803 36.6665 139.363C36.7119 139.217 37.0008 139.217 37.0461 139.363C37.4943 140.803 38.8579 143.859 42.3718 143.913C46.9727 143.984 50.4342 138.818 47.2777 133.631C44.4642 129.008 36.9618 120.571 36.8556 120.571C36.7477 120.571 29.2474 129.008 26.4337 133.631C23.2772 138.818 26.7386 143.984 31.3395 143.913Z" fill="#BC1E24"/>
<path d="M78.5622 17.5402C82.0761 17.594 83.4406 20.6498 83.8892 22.0906C83.9345 22.2363 84.2234 22.2363 84.2687 22.0905C84.7169 20.6497 86.0806 17.594 89.5944 17.5402C94.1954 17.4697 97.6568 22.635 94.5003 27.8219C91.6868 32.4451 84.1845 40.8825 84.0783 40.8825C83.9704 40.8825 76.47 32.4456 73.6563 27.8219C70.4998 22.635 73.9612 17.4697 78.5622 17.5402Z" fill="#BC1E24"/>
<path d="M31.3395 69.0558C34.8534 69.1096 36.2179 72.1654 36.6665 73.6062C36.7119 73.7519 37.0008 73.7519 37.0461 73.6061C37.4943 72.1653 38.8579 69.1096 42.3718 69.0558C46.9727 68.9853 50.4342 74.1506 47.2777 79.3375C44.4642 83.9607 36.9618 92.3981 36.8556 92.3981C36.7477 92.3981 29.2474 83.9612 26.4337 79.3375C23.2772 74.1506 26.7386 68.9853 31.3395 69.0558Z" fill="#BC1E24"/>
<path d="M78.5622 69.0558C82.0761 69.1096 83.4406 72.1654 83.8892 73.6062C83.9345 73.7519 84.2234 73.7519 84.2687 73.6061C84.7169 72.1653 86.0806 69.1096 89.5944 69.0558C94.1954 68.9853 97.6568 74.1506 94.5003 79.3375C91.6868 83.9607 84.1845 92.3981 84.0783 92.3981C83.9704 92.3981 76.47 83.9612 73.6563 79.3375C70.4998 74.1506 73.9612 68.9853 78.5622 69.0558Z" fill="#BC1E24"/>
<path d="M78.5622 143.913C82.0761 143.859 83.4406 140.803 83.8892 139.363C83.9345 139.217 84.2234 139.217 84.2687 139.363C84.7169 140.803 86.0806 143.859 89.5944 143.913C94.1954 143.984 97.6568 138.818 94.5003 133.631C91.6868 129.008 84.1845 120.571 84.0783 120.571C83.9704 120.571 76.47 129.008 73.6563 133.631C70.4998 138.818 73.9612 143.984 78.5622 143.913Z" fill="#BC1E24"/>
</g>
</g>
<defs>
<filter id="filter0_d_2339_976" x="0.761125" y="0.833749" width="119.412" height="165.025" filterUnits="userSpaceOnUse" color-interpolation-filters="sRGB">
<feFlood flood-opacity="0" result="BackgroundImageFix"/>
<feColorMatrix in="SourceAlpha" type="matrix" values="0 0 0 0 0 0 0 0 0 0 0 0 0 0 0 0 0 0 127 0" result="hardAlpha"/>
<feOffset dy="2.61944"/>
<feGaussianBlur stdDeviation="2.61944"/>
<feComposite in2="hardAlpha" operator="out"/>
<feColorMatrix type="matrix" values="0 0 0 0 0.6256 0 0 0 0 0.63712 0 0 0 0 0.6544 0 0 0 1 0"/>
<feBlend mode="normal" in2="BackgroundImageFix" result="effect1_dropShadow_2339_976"/>
<feBlend mode="normal" in="SourceGraphic" in2="effect1_dropShadow_2339_976" result="shape"/>
</filter>
</defs>
</svg>
