<svg width="121" height="166" viewBox="0 0 121 166" fill="none" xmlns="http://www.w3.org/2000/svg">
<g id="Card Variant">
<g id="Card Back" filter="url(#filter0_d_2339_982)">
<path d="M5.86804 8.81939C5.86804 5.85572 8.27058 3.45319 11.2343 3.45319H109.436C112.4 3.45319 114.802 5.85572 114.802 8.81939V152.634C114.802 155.597 112.4 158 109.436 158H11.2343C8.27058 158 5.86804 155.597 5.86804 152.634V8.81939Z" fill="white"/>
</g>
<g id="Vector">
<path d="M10.6717 22.7372C10.6717 22.2538 11.0047 21.9423 11.4666 21.9423C11.7567 21.9423 11.9823 22.0712 12.3798 22.4579C13.164 23.2314 13.959 23.5859 14.9473 23.5859C17.3752 23.5859 18.6107 21.3621 18.6107 17.4947H18.514C17.9768 18.945 16.6017 19.8152 14.8507 19.8152C12.1005 19.8152 10.1882 17.7955 10.1882 14.8949C10.1882 11.9084 12.2186 9.92096 15.2696 9.92096C18.6322 9.92096 20.4262 12.5422 20.4262 17.4088C20.4262 22.5331 18.5677 25.1974 14.9796 25.1974C13.7978 25.1974 12.6806 24.8966 11.8426 24.3487C11.1229 23.876 10.6717 23.2744 10.6717 22.7372ZM18.2884 14.9379C18.2884 12.929 17.0207 11.5539 15.1622 11.5539C13.3144 11.5539 12.0468 12.929 12.0468 14.9271C12.0468 16.8824 13.2929 18.193 15.1622 18.193C17.0422 18.193 18.2884 16.8931 18.2884 14.9379Z" fill="#BC1E24"/>
<path d="M13.2383 29.7479C14.6964 29.7702 15.2626 31.0346 15.4487 31.6308C15.4675 31.6911 15.5874 31.6911 15.6062 31.6308C15.7922 31.0346 16.358 29.7702 17.816 29.7479C19.7251 29.7187 21.1614 31.8561 19.8517 34.0024C18.6842 35.9155 15.5712 39.4068 15.5272 39.4068C15.4824 39.4068 12.3702 35.9157 11.2027 34.0024C9.89296 31.8561 11.3292 29.7187 13.2383 29.7479Z" fill="#BC1E24"/>
<path d="M109.998 138.716C109.998 139.199 109.665 139.511 109.203 139.511C108.913 139.511 108.688 139.382 108.29 138.995C107.506 138.222 106.711 137.867 105.723 137.867C103.295 137.867 102.059 140.091 102.059 143.959H102.156C102.693 142.508 104.068 141.638 105.819 141.638C108.57 141.638 110.482 143.658 110.482 146.558C110.482 149.545 108.451 151.532 105.4 151.532C102.038 151.532 100.244 148.911 100.244 144.044C100.244 138.92 102.102 136.256 105.69 136.256C106.872 136.256 107.989 136.557 108.827 137.105C109.547 137.577 109.998 138.179 109.998 138.716ZM102.382 146.515C102.382 148.524 103.649 149.899 105.508 149.899C107.356 149.899 108.623 148.524 108.623 146.526C108.623 144.571 107.377 143.26 105.508 143.26C103.628 143.26 102.382 144.56 102.382 146.515Z" fill="#BC1E24"/>
<path d="M107.432 131.705C105.974 131.683 105.407 130.419 105.221 129.822C105.203 129.762 105.083 129.762 105.064 129.822C104.878 130.419 104.312 131.683 102.854 131.705C100.945 131.734 99.5086 129.597 100.818 127.451C101.986 125.538 105.099 122.046 105.143 122.046C105.188 122.046 108.3 125.538 109.467 127.451C110.777 129.597 109.341 131.734 107.432 131.705Z" fill="#BC1E24"/>
<path d="M31.2076 17.5402C34.7215 17.594 36.086 20.6498 36.5346 22.0906C36.5799 22.2363 36.8688 22.2363 36.9141 22.0905C37.3623 20.6497 38.726 17.594 42.2398 17.5402C46.8408 17.4697 50.3023 22.635 47.1457 27.8219C44.3322 32.4452 36.8299 40.8825 36.7237 40.8825C36.6158 40.8825 29.1154 32.4456 26.3017 27.8219C23.1452 22.635 26.6066 17.4697 31.2076 17.5402Z" fill="#BC1E24"/>
<path d="M31.2076 109.569C34.7215 109.515 36.086 106.46 36.5346 105.019C36.5799 104.873 36.8688 104.873 36.9141 105.019C37.3623 106.46 38.726 109.515 42.2398 109.569C46.8408 109.64 50.3023 104.475 47.1457 99.2875C44.3322 94.6643 36.8299 86.227 36.7237 86.227C36.6158 86.227 29.1154 94.6639 26.3017 99.2875C23.1452 104.475 26.6066 109.64 31.2076 109.569Z" fill="#BC1E24"/>
<path d="M78.4302 17.5402C81.9441 17.594 83.3086 20.6498 83.7572 22.0906C83.8026 22.2363 84.0914 22.2363 84.1368 22.0905C84.585 20.6497 85.9486 17.594 89.4625 17.5402C94.0634 17.4697 97.5249 22.635 94.3683 27.8219C91.5549 32.4452 84.0525 40.8825 83.9463 40.8825C83.8384 40.8825 76.338 32.4456 73.5243 27.8219C70.3678 22.635 73.8293 17.4697 78.4302 17.5402Z" fill="#BC1E24"/>
<path d="M31.2076 51.884C34.7215 51.9378 36.086 54.9935 36.5346 56.4343C36.5799 56.5801 36.8688 56.58 36.9141 56.4343C37.3623 54.9935 38.726 51.9378 42.2398 51.884C46.8408 51.8134 50.3023 56.9787 47.1457 62.1657C44.3322 66.7889 36.8299 75.2263 36.7237 75.2262C36.6158 75.2262 29.1154 66.7894 26.3017 62.1657C23.1452 56.9787 26.6066 51.8134 31.2076 51.884Z" fill="#BC1E24"/>
<path d="M31.2076 143.913C34.7215 143.859 36.086 140.803 36.5346 139.363C36.5799 139.217 36.8688 139.217 36.9141 139.363C37.3623 140.803 38.726 143.859 42.2398 143.913C46.8408 143.984 50.3023 138.818 47.1457 133.631C44.3322 129.008 36.8299 120.571 36.7237 120.571C36.6158 120.571 29.1154 129.008 26.3017 133.631C23.1452 138.818 26.6066 143.984 31.2076 143.913Z" fill="#BC1E24"/>
<path d="M78.4302 51.884C81.9441 51.9378 83.3086 54.9935 83.7572 56.4343C83.8026 56.5801 84.0914 56.58 84.1368 56.4343C84.585 54.9935 85.9486 51.9378 89.4625 51.884C94.0634 51.8134 97.5249 56.9787 94.3683 62.1657C91.5549 66.7889 84.0525 75.2263 83.9463 75.2262C83.8384 75.2262 76.338 66.7894 73.5243 62.1657C70.3678 56.9787 73.8293 51.8134 78.4302 51.884Z" fill="#BC1E24"/>
<path d="M54.8189 69.0558C58.3328 69.1096 59.6973 72.1654 60.1459 73.6062C60.1913 73.7519 60.4801 73.7519 60.5255 73.6061C60.9737 72.1653 62.3373 69.1096 65.8512 69.0558C70.4521 68.9853 73.9136 74.1506 70.757 79.3375C67.9436 83.9608 60.4412 92.3981 60.335 92.3981C60.2271 92.3981 52.7267 83.9612 49.913 79.3375C46.7565 74.1506 50.218 68.9853 54.8189 69.0558Z" fill="#BC1E24"/>
<path d="M78.4302 143.913C81.9441 143.859 83.3086 140.803 83.7572 139.363C83.8026 139.217 84.0914 139.217 84.1368 139.363C84.585 140.803 85.9486 143.859 89.4625 143.913C94.0634 143.984 97.5249 138.818 94.3683 133.631C91.5549 129.008 84.0525 120.571 83.9463 120.571C83.8384 120.571 76.338 129.008 73.5243 133.631C70.3678 138.818 73.8293 143.984 78.4302 143.913Z" fill="#BC1E24"/>
<path d="M78.4302 109.569C81.9441 109.515 83.3086 106.46 83.7572 105.019C83.8026 104.873 84.0914 104.873 84.1368 105.019C84.585 106.46 85.9486 109.515 89.4625 109.569C94.0634 109.64 97.5249 104.475 94.3683 99.2875C91.5549 94.6643 84.0525 86.227 83.9463 86.227C83.8384 86.227 76.338 94.6639 73.5243 99.2875C70.3678 104.475 73.8293 109.64 78.4302 109.569Z" fill="#BC1E24"/>
</g>
</g>
<defs>
<filter id="filter0_d_2339_982" x="0.629167" y="0.833749" width="119.412" height="165.025" filterUnits="userSpaceOnUse" color-interpolation-filters="sRGB">
<feFlood flood-opacity="0" result="BackgroundImageFix"/>
<feColorMatrix in="SourceAlpha" type="matrix" values="0 0 0 0 0 0 0 0 0 0 0 0 0 0 0 0 0 0 127 0" result="hardAlpha"/>
<feOffset dy="2.61944"/>
<feGaussianBlur stdDeviation="2.61944"/>
<feComposite in2="hardAlpha" operator="out"/>
<feColorMatrix type="matrix" values="0 0 0 0 0.6256 0 0 0 0 0.63712 0 0 0 0 0.6544 0 0 0 1 0"/>
<feBlend mode="normal" in2="BackgroundImageFix" result="effect1_dropShadow_2339_982"/>
<feBlend mode="normal" in="SourceGraphic" in2="effect1_dropShadow_2339_982" result="shape"/>
</filter>
</defs>
</svg>
