<svg width="121" height="166" viewBox="0 0 121 166" fill="none" xmlns="http://www.w3.org/2000/svg">
<g id="Card Variant">
<g id="Card Back" filter="url(#filter0_d_2339_979)">
<path d="M5.93408 8.81939C5.93408 5.85572 8.33662 3.45319 11.3003 3.45319H109.502C112.466 3.45319 114.868 5.85572 114.868 8.81939V152.634C114.868 155.597 112.466 158 109.502 158H11.3003C8.33662 158 5.93408 155.597 5.93408 152.634V8.81939Z" fill="white"/>
</g>
<g id="Vector">
<path d="M10.7378 22.7372C10.7378 22.2538 11.0709 21.9423 11.5328 21.9423C11.8229 21.9423 12.0485 22.0712 12.4459 22.4579C13.2302 23.2314 14.0252 23.5859 15.0135 23.5859C17.4414 23.5859 18.6768 21.3621 18.6768 17.4947H18.5801C18.043 18.945 16.6679 19.8152 14.9168 19.8152C12.1666 19.8152 10.2544 17.7955 10.2544 14.8949C10.2544 11.9084 12.2848 9.92096 15.3358 9.92096C18.6983 9.92096 20.4924 12.5422 20.4924 17.4088C20.4924 22.5331 18.6339 25.1974 15.0457 25.1974C13.864 25.1974 12.7467 24.8966 11.9088 24.3487C11.189 23.876 10.7378 23.2744 10.7378 22.7372ZM18.3545 14.9379C18.3545 12.929 17.0869 11.5539 15.2284 11.5539C13.3806 11.5539 12.1129 12.929 12.1129 14.9271C12.1129 16.8824 13.3591 18.193 15.2284 18.193C17.1084 18.193 18.3545 16.8931 18.3545 14.9379Z" fill="#211C1D"/>
<path d="M14.6476 39.9434C14.5349 39.9434 14.4435 39.8557 14.4435 39.7474C14.4435 39.517 15.0214 38.0022 15.161 36.983C15.1778 36.8604 15.0222 36.8116 14.9519 36.9113C14.6151 37.3891 14.2755 37.9001 13.3516 37.9123C11.6304 37.9349 10.6388 36.2998 11.1803 34.8119C11.4457 34.0823 15.0972 29.211 15.5934 29.211C16.0895 29.211 19.741 34.0823 20.0065 34.8119C20.5479 36.2998 19.5563 37.9349 17.8351 37.9123C16.9112 37.9001 16.5716 37.3891 16.2348 36.9113C16.1645 36.8116 16.0089 36.8604 16.0257 36.983C16.1653 38.0022 16.7432 39.517 16.7432 39.7474C16.7432 39.8557 16.6519 39.9434 16.5391 39.9434H14.6476Z" fill="#211C1D"/>
<path d="M110.065 138.716C110.065 139.199 109.732 139.511 109.27 139.511C108.98 139.511 108.754 139.382 108.356 138.995C107.572 138.222 106.777 137.867 105.789 137.867C103.361 137.867 102.126 140.091 102.126 143.959H102.222C102.759 142.508 104.134 141.638 105.886 141.638C108.636 141.638 110.548 143.658 110.548 146.558C110.548 149.545 108.518 151.532 105.467 151.532C102.104 151.532 100.31 148.911 100.31 144.044C100.31 138.92 102.169 136.256 105.757 136.256C106.938 136.256 108.056 136.557 108.894 137.105C109.613 137.577 110.065 138.179 110.065 138.716ZM102.448 146.515C102.448 148.524 103.716 149.899 105.574 149.899C107.422 149.899 108.689 148.524 108.689 146.526C108.689 144.571 107.443 143.26 105.574 143.26C103.694 143.26 102.448 144.56 102.448 146.515Z" fill="#211C1D"/>
<path d="M106.155 121.51C106.268 121.51 106.359 121.598 106.359 121.706C106.359 121.936 105.781 123.451 105.641 124.47C105.625 124.593 105.78 124.642 105.85 124.542C106.187 124.064 106.527 123.553 107.451 123.541C109.172 123.518 110.164 125.153 109.622 126.641C109.357 127.371 105.705 132.242 105.209 132.242C104.713 132.242 101.061 127.371 100.796 126.641C100.255 125.153 101.246 123.518 102.967 123.541C103.891 123.553 104.231 124.064 104.568 124.542C104.638 124.642 104.793 124.593 104.777 124.47C104.637 123.451 104.059 121.936 104.059 121.706C104.059 121.598 104.151 121.51 104.263 121.51H106.155Z" fill="#211C1D"/>
<path d="M34.5645 42.0899C34.2993 42.0899 34.0843 41.8793 34.0843 41.6195C34.0843 41.0664 35.4442 37.431 35.7726 34.9848C35.8121 34.6907 35.4461 34.5735 35.2807 34.8127C34.488 35.9595 33.689 37.1859 31.5152 37.2151C27.4653 37.2696 25.1322 33.3452 26.4061 29.7743C27.0307 28.0233 35.6225 16.3321 36.7899 16.3321C37.9572 16.3321 46.5491 28.0233 47.1736 29.7743C48.4476 33.3452 46.1145 37.2696 42.0645 37.2151C39.8907 37.1859 39.0917 35.9595 38.2991 34.8127C38.1337 34.5735 37.7677 34.6907 37.8071 34.9848C38.1356 37.431 39.4954 41.0664 39.4954 41.6195C39.4954 41.8793 39.2805 42.0899 39.0152 42.0899H34.5645Z" fill="#211C1D"/>
<path d="M34.5645 85.0196C34.2993 85.0196 34.0843 85.2302 34.0843 85.49C34.0843 86.0431 35.4442 89.6785 35.7726 92.1246C35.8121 92.4188 35.4461 92.536 35.2807 92.2968C34.488 91.15 33.689 89.9236 31.5152 89.8944C27.4653 89.8399 25.1322 93.7643 26.4061 97.3352C27.0307 99.0862 35.6225 110.777 36.7899 110.777C37.9572 110.777 46.5491 99.0862 47.1736 97.3352C48.4476 93.7643 46.1145 89.8399 42.0645 89.8944C39.8907 89.9236 39.0917 91.15 38.2991 92.2968C38.1337 92.536 37.7677 92.4188 37.8071 92.1246C38.1356 89.6785 39.4954 86.0431 39.4954 85.49C39.4954 85.2302 39.2805 85.0196 39.0152 85.0196H34.5645Z" fill="#211C1D"/>
<path d="M81.7871 42.0899C81.5219 42.0899 81.307 41.8793 81.307 41.6195C81.307 41.0664 82.6668 37.431 82.9952 34.9848C83.0347 34.6907 82.6687 34.5735 82.5033 34.8127C81.7107 35.9595 80.9116 37.1859 78.7378 37.2151C74.6879 37.2696 72.3548 33.3452 73.6287 29.7743C74.2533 28.0233 82.8451 16.3321 84.0125 16.3321C85.1799 16.3321 93.7717 28.0233 94.3963 29.7743C95.6702 33.3452 93.3371 37.2696 89.2872 37.2151C87.1134 37.1859 86.3143 35.9595 85.5217 34.8127C85.3563 34.5735 84.9903 34.6907 85.0298 34.9848C85.3582 37.431 86.718 41.0664 86.718 41.6195C86.718 41.8793 86.5031 42.0899 86.2379 42.0899H81.7871Z" fill="#211C1D"/>
<path d="M34.5645 76.4336C34.2993 76.4336 34.0843 76.2231 34.0843 75.9633C34.0843 75.4101 35.4442 71.7747 35.7726 69.3286C35.8121 69.0344 35.4461 68.9172 35.2807 69.1565C34.488 70.3032 33.689 71.5297 31.5152 71.5588C27.4653 71.6133 25.1322 67.6889 26.4061 64.118C27.0307 62.367 35.6225 50.6759 36.7899 50.6758C37.9572 50.6758 46.5491 62.3671 47.1736 64.118C48.4476 67.6889 46.1145 71.6133 42.0645 71.5588C39.8907 71.5297 39.0917 70.3032 38.2991 69.1565C38.1337 68.9172 37.7677 69.0344 37.8071 69.3286C38.1356 71.7747 39.4954 75.4101 39.4954 75.9633C39.4954 76.2231 39.2805 76.4336 39.0152 76.4336H34.5645Z" fill="#211C1D"/>
<path d="M34.5645 119.363C34.2993 119.363 34.0843 119.574 34.0843 119.834C34.0843 120.387 35.4442 124.022 35.7726 126.468C35.8121 126.763 35.4461 126.88 35.2807 126.64C34.488 125.494 33.689 124.267 31.5152 124.238C27.4653 124.184 25.1322 128.108 26.4061 131.679C27.0307 133.43 35.6225 145.121 36.7899 145.121C37.9572 145.121 46.5491 133.43 47.1736 131.679C48.4476 128.108 46.1145 124.184 42.0645 124.238C39.8907 124.267 39.0917 125.494 38.2991 126.64C38.1337 126.88 37.7677 126.763 37.8071 126.468C38.1356 124.022 39.4954 120.387 39.4954 119.834C39.4954 119.574 39.2805 119.363 39.0152 119.363H34.5645Z" fill="#211C1D"/>
<path d="M81.7871 76.4336C81.5219 76.4336 81.307 76.2231 81.307 75.9633C81.307 75.4101 82.6668 71.7747 82.9952 69.3286C83.0347 69.0344 82.6687 68.9172 82.5033 69.1565C81.7107 70.3032 80.9116 71.5297 78.7378 71.5588C74.6879 71.6133 72.3548 67.6889 73.6287 64.118C74.2533 62.367 82.8451 50.6759 84.0125 50.6758C85.1799 50.6758 93.7717 62.3671 94.3963 64.118C95.6702 67.6889 93.3371 71.6133 89.2872 71.5588C87.1134 71.5297 86.3143 70.3032 85.5217 69.1565C85.3563 68.9172 84.9903 69.0344 85.0298 69.3286C85.3582 71.7747 86.718 75.4101 86.718 75.9633C86.718 76.2231 86.5031 76.4336 86.2379 76.4336H81.7871Z" fill="#211C1D"/>
<path d="M58.1758 93.6055C57.9106 93.6055 57.6957 93.3949 57.6957 93.1351C57.6957 92.582 59.0555 88.9466 59.3839 86.5004C59.4234 86.2063 59.0574 86.0891 58.892 86.3283C58.0994 87.4751 57.3003 88.7015 55.1265 88.7307C51.0766 88.7852 48.7435 84.8608 50.0174 81.2899C50.642 79.5389 59.2338 67.8477 60.4012 67.8477C61.5686 67.8477 70.1604 79.5389 70.785 81.2899C72.0589 84.8608 69.7258 88.7852 65.6759 88.7307C63.5021 88.7015 62.703 87.4751 61.9104 86.3283C61.745 86.0891 61.379 86.2063 61.4185 86.5004C61.7469 88.9466 63.1067 92.582 63.1067 93.1351C63.1067 93.3949 62.8918 93.6055 62.6266 93.6055H58.1758Z" fill="#211C1D"/>
<path d="M81.7871 119.363C81.5219 119.363 81.307 119.574 81.307 119.834C81.307 120.387 82.6668 124.022 82.9952 126.468C83.0347 126.763 82.6687 126.88 82.5033 126.64C81.7107 125.494 80.9116 124.267 78.7378 124.238C74.6879 124.184 72.3548 128.108 73.6287 131.679C74.2533 133.43 82.8451 145.121 84.0125 145.121C85.1799 145.121 93.7717 133.43 94.3963 131.679C95.6702 128.108 93.3371 124.184 89.2872 124.238C87.1134 124.267 86.3143 125.494 85.5217 126.64C85.3563 126.88 84.9903 126.763 85.0298 126.468C85.3582 124.022 86.718 120.387 86.718 119.834C86.718 119.574 86.5031 119.363 86.2379 119.363H81.7871Z" fill="#211C1D"/>
<path d="M81.7871 85.0196C81.5219 85.0196 81.307 85.2302 81.307 85.49C81.307 86.0431 82.6668 89.6785 82.9952 92.1246C83.0347 92.4188 82.6687 92.536 82.5033 92.2968C81.7107 91.15 80.9116 89.9236 78.7378 89.8944C74.6879 89.8399 72.3548 93.7643 73.6287 97.3352C74.2533 99.0862 82.8451 110.777 84.0125 110.777C85.1799 110.777 93.7717 99.0862 94.3963 97.3352C95.6702 93.7643 93.3371 89.8399 89.2872 89.8944C87.1134 89.9236 86.3143 91.15 85.5217 92.2968C85.3563 92.536 84.9903 92.4188 85.0298 92.1246C85.3582 89.6785 86.718 86.0431 86.718 85.49C86.718 85.2302 86.5031 85.0196 86.2379 85.0196H81.7871Z" fill="#211C1D"/>
</g>
</g>
<defs>
<filter id="filter0_d_2339_979" x="0.695207" y="0.833749" width="119.412" height="165.025" filterUnits="userSpaceOnUse" color-interpolation-filters="sRGB">
<feFlood flood-opacity="0" result="BackgroundImageFix"/>
<feColorMatrix in="SourceAlpha" type="matrix" values="0 0 0 0 0 0 0 0 0 0 0 0 0 0 0 0 0 0 127 0" result="hardAlpha"/>
<feOffset dy="2.61944"/>
<feGaussianBlur stdDeviation="2.61944"/>
<feComposite in2="hardAlpha" operator="out"/>
<feColorMatrix type="matrix" values="0 0 0 0 0.6256 0 0 0 0 0.63712 0 0 0 0 0.6544 0 0 0 1 0"/>
<feBlend mode="normal" in2="BackgroundImageFix" result="effect1_dropShadow_2339_979"/>
<feBlend mode="normal" in="SourceGraphic" in2="effect1_dropShadow_2339_979" result="shape"/>
</filter>
</defs>
</svg>
