<svg width="76" height="103" viewBox="0 0 76 103" fill="none" xmlns="http://www.w3.org/2000/svg">
<g id="Card Variant">
<g id="Card Back" filter="url(#filter0_d_2339_1049)">
<path d="M4.68677 5.28358C4.68677 3.47011 6.15688 2 7.97035 2H68.0598C69.8733 2 71.3434 3.47011 71.3434 5.28358V93.2835C71.3434 95.097 69.8733 96.5671 68.0598 96.5671H7.97035C6.15688 96.5671 4.68677 95.097 4.68677 93.2835V5.28358Z" fill="white"/>
</g>
<g id="Vector">
<path d="M7.37642 15.2198C7.04774 15.2198 6.83081 15.0292 6.83081 14.7268C6.83081 14.5953 6.86368 14.4704 6.91627 14.3126L9.618 6.75962C9.78234 6.29947 10.0124 6.08911 10.4331 6.08911C10.8538 6.08911 11.0839 6.29947 11.2483 6.75962L13.95 14.3126C14.0026 14.4573 14.0354 14.5953 14.0354 14.7202C14.0354 15.0292 13.8185 15.2198 13.4833 15.2198C13.1677 15.2198 12.9902 15.0686 12.8653 14.6808L12.1094 12.4392H8.75029L7.99433 14.6808C7.86943 15.0752 7.69195 15.2198 7.37642 15.2198ZM9.05925 11.5123H11.8004L10.4528 7.51558H10.4068L9.05925 11.5123Z" fill="#211C1D"/>
<path d="M10.0186 24.3284C9.94961 24.3284 9.89371 24.2747 9.89371 24.2084C9.89371 24.0674 10.2474 23.1405 10.3328 22.5169C10.343 22.4419 10.2478 22.412 10.2048 22.473C9.9987 22.7654 9.7909 23.0781 9.22559 23.0855C8.17237 23.0994 7.56564 22.0988 7.89693 21.1884C8.05936 20.742 10.2937 17.7612 10.5973 17.7612C10.9009 17.7612 13.1353 20.742 13.2977 21.1884C13.629 22.0988 13.0222 23.0994 11.969 23.0855C11.4037 23.0781 11.1959 22.7654 10.9898 22.473C10.9468 22.412 10.8516 22.4419 10.8619 22.5169C10.9473 23.1405 11.3009 24.0674 11.3009 24.2084C11.3009 24.2747 11.245 24.3284 11.176 24.3284H10.0186Z" fill="#211C1D"/>
<path d="M68.654 83.3473C68.9826 83.3473 69.1996 83.538 69.1996 83.8404C69.1996 83.9718 69.1667 84.0967 69.1141 84.2545L66.4124 91.8075C66.248 92.2677 66.018 92.478 65.5973 92.478C65.1765 92.478 64.9465 92.2677 64.7821 91.8075L62.0804 84.2545C62.0278 84.1099 61.9949 83.9718 61.9949 83.8469C61.9949 83.538 62.2119 83.3473 62.5471 83.3473C62.8627 83.3473 63.0401 83.4985 63.165 83.8864L63.921 86.128H67.2801L68.036 83.8864C68.1609 83.492 68.3384 83.3473 68.654 83.3473ZM66.9711 87.0548H64.23L65.5775 91.0516H65.6236L66.9711 87.0548Z" fill="#211C1D"/>
<path d="M66.0118 74.2388C66.0808 74.2388 66.1367 74.2925 66.1367 74.3587C66.1367 74.4997 65.783 75.4266 65.6976 76.0503C65.6874 76.1253 65.7825 76.1552 65.8256 76.0941C66.0317 75.8018 66.2395 75.4891 66.8048 75.4816C67.858 75.4678 68.4647 76.4683 68.1335 77.3787C67.971 77.8252 65.7367 80.8059 65.4331 80.8059C65.1295 80.8059 62.8951 77.8252 62.7327 77.3787C62.4014 76.4683 63.0081 75.4678 64.0614 75.4816C64.6267 75.4891 64.8345 75.8018 65.0406 76.0941C65.0836 76.1552 65.1788 76.1253 65.1685 76.0503C65.0831 75.4266 64.7295 74.4997 64.7295 74.3587C64.7295 74.2925 64.7854 74.2388 64.8544 74.2388H66.0118Z" fill="#211C1D"/>
<path d="M36.6535 57.1642C36.4912 57.1642 36.3597 57.0353 36.3597 56.8763C36.3597 56.5379 37.1918 54.3134 37.3927 52.8166C37.4169 52.6366 37.1929 52.5648 37.0917 52.7113C36.6067 53.4129 36.1178 54.1634 34.7876 54.1813C32.3095 54.2146 30.8819 51.8133 31.6614 49.6282C32.0436 48.5568 37.3009 41.403 38.0152 41.403C38.7295 41.403 43.9868 48.5568 44.369 49.6282C45.1485 51.8133 43.7209 54.2146 41.2428 54.1813C39.9126 54.1634 39.4237 53.4129 38.9387 52.7113C38.8375 52.5648 38.6135 52.6366 38.6377 52.8166C38.8386 54.3134 39.6707 56.5379 39.6707 56.8763C39.6707 57.0353 39.5392 57.1642 39.3769 57.1642H36.6535Z" fill="#211C1D"/>
</g>
</g>
<defs>
<filter id="filter0_d_2339_1049" x="0.686768" y="0" width="74.6567" height="102.567" filterUnits="userSpaceOnUse" color-interpolation-filters="sRGB">
<feFlood flood-opacity="0" result="BackgroundImageFix"/>
<feColorMatrix in="SourceAlpha" type="matrix" values="0 0 0 0 0 0 0 0 0 0 0 0 0 0 0 0 0 0 127 0" result="hardAlpha"/>
<feOffset dy="2"/>
<feGaussianBlur stdDeviation="2"/>
<feComposite in2="hardAlpha" operator="out"/>
<feColorMatrix type="matrix" values="0 0 0 0 0.6256 0 0 0 0 0.63712 0 0 0 0 0.6544 0 0 0 1 0"/>
<feBlend mode="normal" in2="BackgroundImageFix" result="effect1_dropShadow_2339_1049"/>
<feBlend mode="normal" in="SourceGraphic" in2="effect1_dropShadow_2339_1049" result="shape"/>
</filter>
</defs>
</svg>
