<svg width="95" height="130" viewBox="0 0 95 130" fill="none" xmlns="http://www.w3.org/2000/svg">
<g id="Card Variant">
<g id="Card Back" filter="url(#filter0_d_2339_1067)">
<path d="M6 7.58513C6 5.30312 7.84993 3.45319 10.1319 3.45319H85.7465C88.0285 3.45319 89.8785 5.30312 89.8785 7.58513V118.321C89.8785 120.603 88.0285 122.453 85.7465 122.453H10.1319C7.84994 122.453 6 120.603 6 118.321V7.58513Z" fill="white"/>
</g>
<g id="Vector">
<path d="M9.38457 20.0885C8.97097 20.0885 8.698 19.8486 8.698 19.4681C8.698 19.3027 8.73936 19.1455 8.80553 18.947L12.2053 9.44249C12.4121 8.86346 12.7016 8.59875 13.231 8.59875C13.7604 8.59875 14.05 8.86346 14.2568 9.44249L17.6565 18.947C17.7227 19.129 17.7641 19.3027 17.7641 19.4598C17.7641 19.8486 17.4911 20.0885 17.0692 20.0885C16.6722 20.0885 16.4488 19.8983 16.2917 19.4102L15.3404 16.5895H11.1134L10.1621 19.4102C10.005 19.9065 9.78162 20.0885 9.38457 20.0885ZM11.5022 15.4231H14.9516L13.2558 10.3938H13.1979L11.5022 15.4231Z" fill="#BC1E24"/>
<path d="M11.6752 23.6999C12.7979 23.7171 13.2339 24.6907 13.3772 25.1498C13.3917 25.1962 13.484 25.1962 13.4985 25.1498C13.6417 24.6907 14.0774 23.7171 15.2 23.6999C16.67 23.6775 17.776 25.3232 16.7674 26.9759C15.8685 28.4489 13.4715 31.1372 13.4376 31.1372C13.4031 31.1372 11.0068 28.4491 10.1078 26.9759C9.09931 25.3232 10.2052 23.6775 11.6752 23.6999Z" fill="#BC1E24"/>
<path d="M86.4942 105.818C86.9078 105.818 87.1807 106.058 87.1807 106.438C87.1807 106.604 87.1394 106.761 87.0732 106.959L83.6734 116.464C83.4666 117.043 83.1771 117.308 82.6477 117.308C82.1183 117.308 81.8288 117.043 81.622 116.464L78.2222 106.959C78.156 106.777 78.1147 106.604 78.1147 106.447C78.1147 106.058 78.3876 105.818 78.8095 105.818C79.2066 105.818 79.4299 106.008 79.5871 106.496L80.5383 109.317H84.7653L85.7166 106.496C85.8738 106 86.0971 105.818 86.4942 105.818ZM84.3765 110.483H80.9271L82.6229 115.513H82.6808L84.3765 110.483Z" fill="#BC1E24"/>
<path d="M84.2035 102.206C83.0808 102.189 82.6449 101.216 82.5015 100.757C82.487 100.71 82.3948 100.71 82.3803 100.757C82.2371 101.216 81.8014 102.189 80.6787 102.206C79.2087 102.229 78.1028 100.583 79.1113 98.9305C80.0102 97.4575 82.4072 94.7692 82.4411 94.7692C82.4756 94.7692 84.8719 97.4573 85.7709 98.9305C86.7794 100.583 85.6735 102.229 84.2035 102.206Z" fill="#BC1E24"/>
<path d="M43.692 53.9668C46.3977 54.0082 47.4483 56.3611 47.7937 57.4705C47.8287 57.5827 48.0511 57.5827 48.086 57.4705C48.4311 56.3611 49.4811 54.0082 52.1867 53.9668C55.7294 53.9125 58.3948 57.8897 55.9642 61.8836C53.7979 65.4435 48.0211 71.9402 47.9393 71.9402C47.8563 71.9401 42.081 65.4438 39.9145 61.8836C37.484 57.8897 40.1493 53.9125 43.692 53.9668Z" fill="#BC1E24"/>
</g>
</g>
<defs>
<filter id="filter0_d_2339_1067" x="0.966536" y="0.936454" width="93.9453" height="129.067" filterUnits="userSpaceOnUse" color-interpolation-filters="sRGB">
<feFlood flood-opacity="0" result="BackgroundImageFix"/>
<feColorMatrix in="SourceAlpha" type="matrix" values="0 0 0 0 0 0 0 0 0 0 0 0 0 0 0 0 0 0 127 0" result="hardAlpha"/>
<feOffset dy="2.51673"/>
<feGaussianBlur stdDeviation="2.51673"/>
<feComposite in2="hardAlpha" operator="out"/>
<feColorMatrix type="matrix" values="0 0 0 0 0.6256 0 0 0 0 0.63712 0 0 0 0 0.6544 0 0 0 1 0"/>
<feBlend mode="normal" in2="BackgroundImageFix" result="effect1_dropShadow_2339_1067"/>
<feBlend mode="normal" in="SourceGraphic" in2="effect1_dropShadow_2339_1067" result="shape"/>
</filter>
</defs>
</svg>
